<svg width="53" height="166" viewBox="0 0 53 166" fill="none" xmlns="http://www.w3.org/2000/svg">
<path d="M4 1H3.5V0.5H4V1ZM4.35356 165.354C4.15829 165.549 3.84171 165.549 3.64645 165.354L0.46447 162.172C0.269207 161.976 0.269207 161.66 0.46447 161.464C0.659729 161.269 0.976315 161.269 1.17157 161.464L4 164.293L6.82843 161.464C7.02369 161.269 7.34027 161.269 7.53554 161.464C7.7308 161.66 7.7308 161.976 7.53554 162.172L4.35356 165.354ZM53 1.5H50.9583V0.5H53V1.5ZM46.875 1.5H42.7917V0.5H46.875V1.5ZM38.7083 1.5H34.625V0.5H38.7083V1.5ZM30.5417 1.5H26.4583V0.5H30.5417V1.5ZM22.375 1.5H18.2917V0.5H22.375V1.5ZM14.2083 1.5H10.125V0.5H14.2083V1.5ZM6.04167 1.5H4V0.5H6.04167V1.5ZM4.5 1V2.95238H3.5V1H4.5ZM4.5 6.85714V10.7619H3.5V6.85714H4.5ZM4.5 14.6667V18.5714H3.5V14.6667H4.5ZM4.5 22.4762V26.381H3.5V22.4762H4.5ZM4.5 30.2857V34.1905H3.5V30.2857H4.5ZM4.5 38.0952V42H3.5V38.0952H4.5ZM4.5 45.9048V49.8095H3.5V45.9048H4.5ZM4.5 53.7143V57.619H3.5V53.7143H4.5ZM4.5 61.5238V65.4286H3.5V61.5238H4.5ZM4.5 69.3333V73.2381H3.5V69.3333H4.5ZM4.5 77.1429V81.0476H3.5V77.1429H4.5ZM4.5 84.9524V88.8571H3.5V84.9524H4.5ZM4.5 92.7619V96.6667H3.5V92.7619H4.5ZM4.5 100.571V104.476H3.5V100.571H4.5ZM4.5 108.381V112.286H3.5V108.381H4.5ZM4.5 116.19V120.095H3.5V116.19H4.5ZM4.5 124V127.905H3.5V124H4.5ZM4.5 131.81V135.714H3.5V131.81H4.5ZM4.5 139.619V143.524H3.5V139.619H4.5ZM4.5 147.429V151.333H3.5V147.429H4.5ZM4.5 155.238V159.143H3.5V155.238H4.5ZM4.5 163.048V165H3.5V163.048H4.5Z" fill="black"/>
</svg>
