<svg width="52" height="166" viewBox="0 0 52 166" fill="none" xmlns="http://www.w3.org/2000/svg">
<path d="M48 1H48.5V0.5H48V1ZM47.6464 165.354C47.8417 165.549 48.1583 165.549 48.3536 165.354L51.5355 162.172C51.7308 161.976 51.7308 161.66 51.5355 161.464C51.3403 161.269 51.0237 161.269 50.8284 161.464L48 164.293L45.1716 161.464C44.9763 161.269 44.6597 161.269 44.4645 161.464C44.2692 161.66 44.2692 161.976 44.4645 162.172L47.6464 165.354ZM0.5 1.5H2.47917V0.5H0.5V1.5ZM6.4375 1.5H10.3958V0.5H6.4375V1.5ZM14.3542 1.5H18.3125V0.5H14.3542V1.5ZM22.2708 1.5H26.2292V0.5H22.2708V1.5ZM30.1875 1.5H34.1458V0.5H30.1875V1.5ZM38.1042 1.5H42.0625V0.5H38.1042V1.5ZM46.0208 1.5H48V0.5H46.0208V1.5ZM47.5 1V2.95238H48.5V1H47.5ZM47.5 6.85714V10.7619H48.5V6.85714H47.5ZM47.5 14.6667V18.5714H48.5V14.6667H47.5ZM47.5 22.4762V26.381H48.5V22.4762H47.5ZM47.5 30.2857V34.1905H48.5V30.2857H47.5ZM47.5 38.0952V42H48.5V38.0952H47.5ZM47.5 45.9048V49.8095H48.5V45.9048H47.5ZM47.5 53.7143V57.619H48.5V53.7143H47.5ZM47.5 61.5238V65.4286H48.5V61.5238H47.5ZM47.5 69.3333V73.2381H48.5V69.3333H47.5ZM47.5 77.1429V81.0476H48.5V77.1429H47.5ZM47.5 84.9524V88.8571H48.5V84.9524H47.5ZM47.5 92.7619V96.6667H48.5V92.7619H47.5ZM47.5 100.571V104.476H48.5V100.571H47.5ZM47.5 108.381V112.286H48.5V108.381H47.5ZM47.5 116.19V120.095H48.5V116.19H47.5ZM47.5 124V127.905H48.5V124H47.5ZM47.5 131.81V135.714H48.5V131.81H47.5ZM47.5 139.619V143.524H48.5V139.619H47.5ZM47.5 147.429V151.333H48.5V147.429H47.5ZM47.5 155.238V159.143H48.5V155.238H47.5ZM47.5 163.048V165H48.5V163.048H47.5Z" fill="black"/>
</svg>
